<?xml version="1.0" encoding="UTF-8" standalone="no" ?>
<!DOCTYPE svg PUBLIC "-//W3C//DTD SVG 1.1//EN" "http://www.w3.org/Graphics/SVG/1.1/DTD/svg11.dtd">
<svg xmlns="http://www.w3.org/2000/svg" xmlns:xlink="http://www.w3.org/1999/xlink" version="1.1" width="1200" height="900" viewBox="-354.67 -116.33 1200 900" xml:space="preserve">
<desc>Created with Fabric.js 5.2.4</desc>
<defs>
</defs>
<rect x="0" y="0" width="100%" height="100%" fill="transparent"></rect>
<g transform="matrix(1 0 0 1 600 450)" id="8930277f-ac7a-4bde-9452-213654fae087"  >
<rect style="stroke: none; stroke-width: 1; stroke-dasharray: none; stroke-linecap: butt; stroke-dashoffset: 0; stroke-linejoin: miter; stroke-miterlimit: 4; fill: rgb(255,255,255); fill-rule: nonzero; opacity: 1; visibility: hidden;" vector-effect="non-scaling-stroke"  x="-600" y="-450" rx="0" ry="0" width="1200" height="900" />
</g>
<g transform="matrix(Infinity NaN NaN Infinity 0 0)" id="062d5cd4-162f-4c44-b797-c596bb36a103"  >
</g>
<g transform="matrix(0.58 0 0 0.58 225.99 337.1)"  >
<g style="" vector-effect="non-scaling-stroke"   >
		<g transform="matrix(0.13 0 0 -0.13 -0.02 0)"  >
<path style="stroke: none; stroke-width: 1; stroke-dasharray: none; stroke-linecap: butt; stroke-dashoffset: 0; stroke-linejoin: miter; stroke-miterlimit: 4; fill: rgb(117,230,240); fill-rule: nonzero; opacity: 1;" vector-effect="non-scaling-stroke"  transform=" translate(-6398.5, -6400.87)" d="M 6455 11390 C 6439 11387 5246 10738 3805 9948 C 2364 9159 1145 8494 1097 8472 C 894 8377 740 8222 630 8001 C 545 7832 507 7660 507 7445 C 507 7095 624 6813 858 6601 L 934 6532 L 849 6448 C 622 6227 507 5941 507 5595 C 507 5427 523 5322 570 5184 C 627 5016 711 4888 849 4758 C 894 4716 930 4680 930 4677 C 930 4675 888 4631 837 4579 C 614 4354 507 4081 507 3740 C 507 3404 607 3143 815 2935 C 972 2778 1130 2698 1389 2645 C 1453 2632 2747 2348 4265 2015 C 5783 1681 7044 1408 7068 1408 C 7099 1408 7132 1420 7193 1453 C 7362 1544 12206 4273 12231 4291 C 12268 4317 12290 4369 12290 4428 C 12290 4553 12156 4629 12039 4570 C 12017 4558 10891 3925 9537 3163 C 8183 2401 7064 1773 7050 1768 C 7030 1760 6639 1843 5245 2149 C 4266 2365 3013 2640 2460 2760 C 1907 2881 1419 2989 1375 3000 C 1068 3078 881 3310 851 3648 C 820 4000 973 4323 1229 4447 C 1358 4510 1351 4510 2005 4367 C 5469 3605 7046 3260 7071 3260 C 7087 3260 7123 3271 7150 3285 C 7277 3349 12218 6135 12238 6154 C 12279 6191 12293 6228 12288 6290 C 12283 6359 12253 6405 12196 6431 C 12136 6458 12100 6454 12018 6412 C 11978 6391 10843 5753 9495 4995 C 8148 4236 7036 3616 7025 3617 C 7009 3618 1605 4801 1370 4855 C 1213 4891 1062 4997 971 5136 C 829 5353 806 5691 917 5954 C 1002 6158 1177 6313 1351 6342 C 1414 6352 1429 6349 2782 6051 C 3534 5885 4166 5750 4186 5750 C 4294 5750 4378 5875 4339 5977 C 4328 6007 4286 6056 4258 6071 C 4244 6079 2278 6514 1640 6651 C 1339 6715 1318 6721 1245 6755 C 1014 6861 876 7073 851 7358 C 820 7708 973 8033 1226 8156 C 1265 8174 1310 8190 1325 8190 C 1350 8190 2211 8006 5740 7249 C 6644 7055 7057 6970 7085 6973 C 7110 6975 7168 7002 7240 7042 C 7303 7078 8449 7723 9785 8475 C 11122 9227 12226 9852 12238 9863 C 12279 9901 12293 9938 12288 10000 C 12283 10064 12256 10111 12209 10135 C 12193 10144 11844 10224 11433 10315 C 8828 10887 6541 11388 6515 11392 C 6499 11395 6472 11394 6455 11390 z" stroke-linecap="round" />
</g>
		<g transform="matrix(0.13 0 0 -0.13 343.09 -41.02)"  >
<path style="stroke: none; stroke-width: 1; stroke-dasharray: none; stroke-linecap: butt; stroke-dashoffset: 0; stroke-linejoin: miter; stroke-miterlimit: 4; fill: rgb(117,230,240); fill-rule: nonzero; opacity: 1;" vector-effect="non-scaling-stroke"  transform=" translate(-8971.81, -6708.55)" d="M 12005 8261 C 11967 8240 10842 7607 9505 6855 C 8168 6103 7064 5483 7050 5477 C 7031 5470 6898 5496 6455 5593 C 5752 5748 5819 5736 5765 5715 C 5627 5663 5614 5477 5742 5411 C 5791 5386 7000 5118 7066 5117 C 7089 5117 7125 5126 7147 5137 C 7169 5149 8104 5674 9226 6305 C 12206 7982 12202 7980 12231 8001 C 12291 8044 12310 8158 12267 8221 C 12206 8311 12120 8324 12005 8261 z" stroke-linecap="round" />
</g>
		<g transform="matrix(0.13 0 0 -0.13 -179.15 77.45)"  >
<path style="stroke: none; stroke-width: 1; stroke-dasharray: none; stroke-linecap: butt; stroke-dashoffset: 0; stroke-linejoin: miter; stroke-miterlimit: 4; fill: rgb(117,230,240); fill-rule: nonzero; opacity: 1;" vector-effect="non-scaling-stroke"  transform=" translate(-5055.03, -5820)" d="M 4620 5939 C 4620 5066 4621 5018 4638 5022 C 4647 5025 4736 5077 4835 5139 C 4933 5200 5022 5250 5030 5250 C 5039 5250 5143 5144 5260 5015 C 5378 4886 5477 4780 5482 4780 C 5494 4780 5492 6707 5480 6715 C 5470 6721 4660 6859 4633 6860 C 4623 6860 4620 6669 4620 5939 z" stroke-linecap="round" />
</g>
</g>
</g>
<g transform="matrix(0.96 -0.22 0.22 0.96 230.92 112.45)" style="" id="5ebafe6c-db15-4055-98e1-8f9c2f6a4302"  >
		<text xml:space="preserve" font-family="Raleway" font-size="105" font-style="normal" font-weight="900" style="stroke: none; stroke-width: 1; stroke-dasharray: none; stroke-linecap: butt; stroke-dashoffset: 0; stroke-linejoin: miter; stroke-miterlimit: 4; fill: rgb(255,255,255); fill-rule: nonzero; opacity: 1; white-space: pre;" ><tspan x="-315.58" y="32.98" >OzonTweets</tspan></text>
</g>
</svg>